<?xml version="1.0" standalone="no"?>
<!DOCTYPE svg PUBLIC "-//W3C//DTD SVG 20010904//EN"
 "http://www.w3.org/TR/2001/REC-SVG-20010904/DTD/svg10.dtd">
<svg version="1.0" xmlns="http://www.w3.org/2000/svg"
 width="512.000000pt" height="512.000000pt" viewBox="0 0 512.000000 512.000000"
 preserveAspectRatio="xMidYMid meet">

<g transform="translate(0.000000,512.000000) scale(0.100000,-0.100000)"
fill="#97074A" stroke="none">
<path d="M4803 5105 c-179 -50 -432 -201 -804 -481 -386 -290 -525 -417 -1221
-1117 -329 -329 -598 -603 -598 -606 0 -4 19 -18 42 -31 119 -66 279 -185 407
-305 114 -107 282 -323 349 -450 12 -22 26 -46 31 -54 7 -11 37 14 133 115
286 297 515 569 927 1099 857 1102 1042 1388 1045 1617 1 69 -2 80 -29 119
-48 68 -104 102 -172 106 -32 1 -81 -4 -110 -12z"/>
<path d="M1859 2572 c-205 -212 -341 -364 -333 -371 5 -4 38 -18 74 -31 209
-73 423 -241 550 -429 62 -94 110 -183 130 -246 7 -22 19 -55 27 -73 l14 -34
52 49 c29 26 134 124 234 217 l181 169 -30 65 c-111 244 -344 503 -609 675
-72 47 -180 107 -192 107 -2 0 -46 -44 -98 -98z"/>
<path d="M1067 1949 c-319 -32 -606 -250 -729 -554 -45 -109 -58 -187 -68
-385 -17 -327 -53 -564 -108 -706 -10 -27 -51 -101 -90 -164 l-71 -115 77 -6
c42 -4 158 -10 257 -14 682 -28 1361 194 1583 517 116 169 172 415 143 632
-37 277 -180 510 -400 651 -125 80 -264 129 -396 140 -38 3 -81 7 -95 9 -14 1
-60 -1 -103 -5z"/>
</g>
</svg>
