<?xml version="1.0" standalone="no"?>
<!DOCTYPE svg PUBLIC "-//W3C//DTD SVG 20010904//EN"
 "http://www.w3.org/TR/2001/REC-SVG-20010904/DTD/svg10.dtd">
<svg version="1.0" xmlns="http://www.w3.org/2000/svg"
 width="512.000000pt" height="512.000000pt" viewBox="0 0 512.000000 512.000000"
 preserveAspectRatio="xMidYMid meet">

<g transform="translate(0.000000,512.000000) scale(0.100000,-0.100000)"
fill="#97074A" stroke="none">
<path d="M735 5106 c-45 -20 -70 -53 -105 -139 -89 -216 -261 -388 -477 -477
-89 -37 -128 -68 -144 -118 -26 -80 17 -158 106 -191 244 -91 415 -257 522
-506 40 -94 67 -122 124 -134 87 -18 148 29 197 152 81 205 265 388 469 469
52 20 91 43 116 69 33 35 37 43 37 92 0 83 -26 113 -134 160 -220 94 -378 241
-468 437 -65 140 -72 153 -99 173 -34 25 -105 31 -144 13z m97 -523 c46 -60
169 -183 225 -223 l43 -31 -73 -58 c-80 -65 -134 -120 -195 -198 l-40 -53 -31
43 c-42 56 -164 180 -224 225 l-49 37 44 35 c79 64 175 160 214 215 22 30 41
54 44 55 3 0 22 -21 42 -47z"/>
<path d="M3784 5106 c-42 -19 -68 -54 -100 -139 -42 -112 -129 -278 -197 -374
-77 -109 -276 -309 -382 -385 -93 -65 -278 -164 -383 -203 -89 -33 -128 -64
-143 -115 -28 -92 14 -154 134 -200 302 -116 566 -315 756 -569 73 -99 166
-270 221 -409 47 -120 108 -161 200 -133 51 15 82 54 115 143 43 113 130 278
198 375 80 113 277 310 390 390 97 69 263 156 377 198 122 46 169 113 142 204
-16 52 -55 84 -142 116 -437 162 -798 523 -964 962 -33 86 -58 121 -102 139
-41 17 -80 17 -120 0z m110 -591 c152 -243 415 -504 632 -627 30 -16 56 -34
59 -38 3 -5 -22 -25 -56 -46 -250 -151 -492 -394 -644 -643 -20 -35 -41 -59
-44 -54 -4 4 -42 60 -83 123 -145 219 -310 383 -533 532 -66 44 -119 82 -118
84 1 3 55 41 120 84 234 155 434 363 578 599 20 34 38 61 40 61 1 0 24 -34 49
-75z"/>
<path d="M1523 3170 c-46 -28 -56 -47 -118 -230 -63 -185 -120 -311 -194 -433
-155 -256 -413 -485 -691 -615 -58 -27 -182 -75 -277 -106 -149 -50 -176 -62
-202 -91 -54 -62 -51 -158 8 -208 16 -13 106 -50 212 -86 333 -113 506 -217
714 -425 209 -209 313 -385 426 -715 36 -105 73 -196 86 -212 50 -59 146 -62
208 -8 29 26 41 53 91 202 31 95 79 219 106 277 130 278 359 536 615 691 123
75 250 131 424 189 85 28 170 60 187 70 86 53 96 166 20 237 -13 13 -99 48
-203 83 -324 109 -521 226 -720 425 -199 199 -317 399 -425 720 -36 105 -70
189 -83 203 -50 54 -126 68 -184 32z m238 -877 c182 -270 423 -486 719 -642
l109 -57 -82 -40 c-368 -178 -679 -489 -871 -871 -20 -40 -38 -73 -40 -73 -2
0 -23 39 -46 86 -61 122 -184 303 -282 414 -149 169 -352 326 -554 430 -53 27
-99 52 -102 54 -2 3 33 23 79 46 376 190 687 502 863 868 l40 81 57 -109 c32
-60 81 -144 110 -187z"/>
<path d="M4291 1579 c-49 -10 -94 -63 -129 -152 -82 -207 -261 -385 -475 -472
-111 -46 -147 -84 -147 -158 0 -83 26 -114 134 -160 249 -107 416 -278 507
-522 33 -89 111 -132 191 -106 50 16 81 55 118 144 90 217 260 387 477 477 89
37 128 68 144 118 26 80 -17 158 -106 191 -244 91 -415 257 -522 506 -23 53
-48 96 -64 107 -33 25 -86 36 -128 27z m68 -521 c41 -57 164 -180 224 -226 26
-20 47 -39 47 -42 0 -3 -13 -13 -29 -23 -48 -28 -183 -160 -226 -220 -22 -31
-42 -56 -45 -57 -3 0 -22 21 -42 48 -46 59 -169 182 -225 222 l-43 31 73 58
c75 60 157 144 204 211 15 22 29 40 30 40 1 0 15 -19 32 -42z"/>
</g>
</svg>
